<svg width="103" height="125" xmlns="http://www.w3.org/2000/svg" xmlns:xlink="http://www.w3.org/1999/xlink" xml:space="preserve" overflow="hidden"><defs><clipPath id="clip0"><rect x="590" y="350" width="103" height="125"/></clipPath></defs><g clip-path="url(#clip0)" transform="translate(-590 -350)"><path d="M177.141 120.465C176.903 119.279 176.903 117.857 176.666 116.671 176.666 116.434 176.429 116.197 176.192 115.959 175.955 116.197 175.718 116.197 175.481 116.434 175.243 116.908 175.006 117.382 174.769 117.857 174.532 117.857 174.532 117.857 174.295 117.857 174.295 117.145 174.295 116.434 174.295 115.722 174.532 114.062 173.109 113.114 172.635 111.691L172.398 111.691C171.449 111.928 170.026 112.165 169.315 112.877 168.129 113.825 167.181 115.011 165.995 116.197 165.758 116.434 165.521 117.145 165.521 117.619 165.758 119.517 164.809 120.939 163.861 122.599 163.861 122.836 163.624 122.836 163.387 122.836 163.15 122.836 163.15 122.599 162.912 122.362 162.438 120.939 161.727 119.517 161.252 118.094 160.778 116.671 160.541 115.011 160.067 113.588 160.067 113.114 160.067 112.64 159.118 112.877 158.407 113.114 158.17 112.64 158.17 112.165 158.17 110.742 156.51 110.505 156.035 109.557 156.035 109.557 155.561 109.557 155.324 109.794 153.901 110.505 152.716 110.268 151.293 109.794 151.056 109.794 150.818 109.557 150.581 109.32 150.107 108.608 149.633 108.371 148.921 108.845 148.21 109.083 146.55 107.897 146.076 106.948 145.839 106.711 145.601 106.474 145.364 106.237 145.364 106.711 145.127 107.185 145.364 107.423 145.839 108.608 146.55 109.557 147.261 110.505 147.499 110.742 147.973 110.742 148.21 110.505 148.684 110.268 149.159 109.794 149.633 109.557 150.344 110.031 151.056 110.505 151.53 110.98 152.241 111.454 152.241 111.928 152.004 112.64 150.818 115.248 148.921 116.908 146.313 117.619 145.839 117.857 145.364 118.094 144.89 118.331 143.942 118.805 142.993 119.042 141.57 119.517 141.57 119.754 141.57 120.702 141.807 120.939 142.282 121.176 142.993 120.939 143.467 120.702 144.179 120.465 144.89 120.228 145.601 119.991 146.313 119.754 146.787 119.991 146.55 120.702 146.313 121.651 146.076 122.362 145.839 123.311 145.364 124.259 144.89 125.208 144.416 126.156 144.179 126.631 143.942 127.105 143.467 127.105 141.333 128.291 140.384 130.425 139.199 132.085 138.487 133.27 138.962 134.693 139.673 135.879 140.384 137.302 140.384 140.384 138.725 141.333 138.25 141.807 137.776 142.282 137.302 142.756 136.59 143.467 136.353 144.416 136.827 145.364 137.302 146.313 137.065 147.024 135.879 147.261 135.167 147.499 134.93 147.973 135.167 148.684 135.405 148.921 135.167 149.396 134.93 149.87 134.219 151.056 133.27 152.004 132.322 152.953 131.848 153.427 130.899 153.664 130.188 153.901 129.476 154.138 128.528 154.138 127.816 154.613 126.868 155.087 126.156 154.85 125.919 153.901 125.682 152.241 125.208 150.818 124.259 149.396 124.022 149.159 124.022 148.447 124.259 147.973 124.734 147.024 124.259 146.313 123.785 145.364 122.599 143.704 121.651 142.044 121.888 140.147 121.888 139.436 122.362 138.725 122.599 138.013 122.836 137.539 122.836 136.827 122.836 136.353 122.599 135.167 122.362 133.982 122.125 132.796 121.888 131.61 121.651 130.662 120.465 129.951 120.228 129.951 120.228 129.239 120.228 129.002 120.228 128.291 120.702 127.342 120.702 126.631 120.702 126.156 120.702 125.682 120.465 125.445 120.228 125.208 119.754 125.208 119.279 125.445 118.568 125.919 117.857 125.682 117.619 124.734 116.908 123.074 115.722 123.074 114.3 124.259 113.825 124.734 112.877 124.971 112.165 124.971 111.217 125.208 110.268 124.496 109.557 125.682 109.557 125.682 108.608 125.682 108.608 125.445 107.897 124.734 107.423 123.785 106.948 122.836 106.474 121.888 106 121.176 105.051 120.702 103.866 120.228 103.154 118.331 103.866 117.145 104.577 115.722 104.814 114.537 104.34 113.114 104.103 112.64 104.34 112.165 104.577 111.691 104.814 110.98 105.051 110.505 105.288 110.031 105.526 108.845 106.237 107.897 107.423 107.423 108.134 107.185 108.371 106.711 108.608 106 108.608 104.103 110.031 103.391 111.217 102.443L111.454 102.443C112.877 102.917 113.825 101.968 115.011 101.494 115.959 101.02 117.145 101.02 118.094 100.783 118.805 100.546 119.517 100.546 120.465 100.546 121.414 100.309 121.888 100.783 122.362 101.494 122.836 102.206 122.362 102.68 121.414 103.154 122.362 103.628 122.836 104.103 123.548 104.577 124.496 105.051 125.445 105.526 126.631 106 127.342 106.474 128.053 106.237 128.291 105.526 128.765 104.577 129.239 104.577 130.188 104.814 130.662 105.051 131.373 105.051 131.848 105.051 133.033 105.288 134.219 105.288 135.405 105.526 136.116 105.763 136.59 105.526 137.065 105.051 137.302 104.577 137.539 104.34 137.539 103.866 138.013 102.206 137.776 101.968 136.116 102.206 135.167 102.206 134.219 102.206 133.508 101.968 132.559 101.731 131.61 101.02 131.848 99.8342 131.848 99.5971 131.61 99.1228 131.373 98.8857 130.662 99.36 129.951 99.5971 130.425 100.309 130.899 101.02 130.188 101.494 129.713 101.731 129.476 101.968 129.002 102.206 128.765 102.443 128.053 101.02 127.816 99.36 126.868 98.1743 125.919 96.9886 124.734 96.0401 123.548 95.3287 124.022 96.9886 125.682 97.7 126.631 98.6486 126.393 99.36 126.156 100.071 125.919 100.783 125.682 100.546 125.445 100.071 125.208 100.071 124.734 99.5971 124.259 99.1228 123.548 98.6486 122.836 98.1743 122.125 97.4629 121.414 96.9886 120.939 96.5143 120.702 96.2772 119.991 96.7515 119.517 96.9886 118.805 96.9886 118.094 97.2257 117.857 97.2257 117.382 97.4629 117.145 97.7 116.671 97.9371 116.434 98.4114 115.959 98.8857 115.485 99.36 115.011 99.5971 115.011 100.071 114.774 101.257 114.062 101.731 112.877 101.968 112.402 102.206 111.691 102.206 111.454 102.443 110.98 102.206 110.268 101.968 109.794 101.731 109.083 101.494 108.608 100.546 108.845 99.8342 109.083 99.1228 109.083 98.6486 109.083 97.9371 109.083 96.7515 109.557 96.5143 110.742 96.5143 111.454 96.5143 112.165 96.7515 112.64 96.7515 113.351 96.7515 114.062 96.7515 114.062 95.8029 114.3 94.8544 114.062 94.143 113.114 93.9058 112.877 93.6687 112.402 93.6687 112.165 93.4316L112.165 93.1944C113.114 92.9573 114.3 92.483 115.248 92.2459L115.248 92.0088C114.062 91.7716 112.64 91.5345 110.98 91.2973 111.691 90.5859 112.165 89.8745 112.64 89.1631 112.165 88.926 111.928 88.6889 111.454 88.4517 111.454 89.8745 110.742 90.5859 109.557 91.0602 108.845 91.2973 108.608 91.0602 108.371 90.3488 108.134 88.6889 109.32 88.2146 110.268 87.9774 110.505 87.266 110.505 86.5546 110.742 86.3175 111.691 85.6061 113.114 85.3689 114.3 86.0804 114.537 86.0804 114.537 86.5546 114.3 86.7918 113.588 87.7403 114.062 88.2146 114.774 88.926 115.248 89.4003 115.485 90.1117 116.197 90.3488 116.434 90.5859 117.145 90.8231 117.382 90.5859 118.331 90.1117 119.042 89.6374 119.991 89.1631 120.228 88.926 120.228 88.4517 120.228 88.2146 120.465 87.7403 120.702 87.266 120.939 87.0289 121.414 86.7918 121.888 87.0289 121.888 87.7403 121.888 88.6889 122.362 88.926 123.074 88.926 124.496 88.926 125.919 88.926 127.342 88.6889 127.579 88.6889 127.816 88.4517 128.053 88.2146 128.291 87.0289 128.765 86.3175 130.425 86.5546 130.188 86.0804 130.188 85.8432 129.951 85.6061 130.899 85.6061 131.61 85.6061 132.559 85.3689 132.796 85.3689 133.033 85.1318 133.508 84.8947 133.27 84.6575 133.033 84.4204 132.559 84.4204 131.848 84.4204 131.136 84.4204 130.425 84.6575 129.713 84.8947 129.239 84.6575 129.002 83.9461 128.765 83.2347 128.291 82.5233 129.239 82.049 129.951 81.5748 130.425 81.1005 131.136 80.6262 129.951 79.9148 129.476 80.152 129.002 81.1005 128.765 82.049 128.053 82.2862 127.342 82.5233 126.156 82.9976 126.156 82.9976 126.868 83.9461 126.868 84.1833 127.105 84.1833 127.105 84.4204 127.105 85.8432 124.496 88.2146 123.074 87.7403 122.836 87.7403 122.599 87.5032 122.599 87.266 122.362 86.7918 122.362 86.3175 122.125 85.6061 121.888 85.8432 121.414 85.8432 121.414 86.0804 120.465 86.7918 119.279 86.3175 119.042 85.3689 118.331 83.4719 118.805 82.2862 120.465 81.1005 120.702 80.8634 121.176 80.8634 121.651 80.6262 122.599 80.152 123.548 79.4405 124.259 78.9663 125.208 78.2549 126.156 77.5435 127.105 76.8321 129.713 75.1721 132.085 75.4092 134.693 76.5949 136.353 77.3063 138.013 78.0177 139.91 77.7806 141.096 77.5435 141.807 78.492 141.807 79.6777 142.282 79.6777 142.519 79.6777 142.993 79.6777 143.467 79.2034 142.756 77.7806 143.942 77.7806 144.416 77.7806 144.653 78.2549 144.89 78.492 147.261 78.2549 149.87 78.2549 152.478 78.0177 152.716 78.0177 153.19 77.7806 153.427 77.7806 154.138 77.0692 155.087 77.0692 155.798 77.3063 156.747 77.5435 157.458 77.7806 158.644 78.0177 158.407 77.5435 158.407 77.3063 158.407 77.3063 157.458 76.5949 157.458 76.1206 158.407 75.4092 158.644 75.1721 158.881 74.935 159.118 74.6978 159.593 74.4607 160.067 74.2236 160.541 74.2236 161.015 74.4607 161.727 74.935 161.49 75.6464 161.49 76.3578 161.727 76.8321 161.49 77.5435 161.252 78.2549 161.015 78.9663 160.778 79.6777 162.201 79.4405 162.675 78.2549 162.438 76.3578 162.438 75.8835 162.438 75.4092 162.675 74.6978 162.912 74.6978 162.912 74.6978 163.15 74.6978 163.387 75.1721 163.624 75.4092 164.098 76.1206 164.335 75.6464 164.335 75.4092 164.572 75.1721 165.047 74.4607 165.521 74.2236 166.232 74.935 166.944 75.6464 167.892 76.1206 168.841 76.5949 168.604 76.3578 168.367 75.8835 168.129 75.6464 167.892 75.4092 167.418 75.1721 167.181 74.935 165.995 73.7493 165.995 73.5121 165.995 73.275 165.995 73.275 166.232 73.0379 166.469 73.0379 168.367 73.275 169.552 72.3265 171.212 71.6151 171.686 71.3779 172.161 71.3779 172.635 71.3779 173.821 71.6151 174.295 70.6665 175.243 70.4294 175.955 70.1922 176.903 70.9036 177.852 70.9036 178.326 70.9036 178.563 70.6665 179.038 70.4294 179.749 70.1922 180.46 69.9551 180.935 69.9551 182.595 70.6665 184.018 70.1922 185.677 70.4294L185.915 70.4294C187.575 70.6665 187.575 70.6665 186.863 72.0893 186.863 72.0893 186.863 72.3265 186.863 72.5636 187.575 72.5636 188.523 72.5636 189.234 72.8007 189.709 72.8007 190.183 73.0379 190.657 73.0379 191.369 73.0379 192.08 73.0379 192.792 73.0379 193.74 73.0379 194.926 72.8007 195.874 72.8007 196.586 72.8007 196.823 73.275 196.823 73.9864 196.823 75.1721 197.297 75.4092 198.246 74.935 198.483 74.6978 198.957 74.6978 199.431 74.6978 200.38 74.6978 201.328 74.6978 202.277 74.4607 202.751 74.2236 203.226 73.7493 203.463 73.275 203.7 72.5636 202.988 72.5636 202.514 72.5636 202.277 72.5636 202.04 72.3265 201.566 72.0893 201.803 71.8522 201.803 71.3779 202.04 71.3779 203.226 71.3779 204.411 71.6151 205.834 71.6151 206.071 71.6151 206.308 71.8522 206.783 72.0893 206.545 72.3265 206.308 72.5636 206.071 72.5636 206.071 72.5636 205.834 72.5636 205.597 72.8007 206.071 73.7493 206.783 73.7493 207.731 73.7493 208.443 73.7493 209.391 73.9864 209.865 74.2236 211.051 74.935 212.237 74.935 213.422 74.935 214.608 74.935 215.557 74.935 216.742 75.6464 216.979 75.8835 217.454 75.8835 217.928 75.8835 219.588 75.8835 221.011 75.1721 222.434 76.3578 222.434 76.3578 222.908 76.1206 223.145 75.8835 223.382 75.1721 223.856 75.1721 224.568 75.4092 225.516 75.6464 226.228 75.6464 227.176 75.8835 228.599 75.8835 229.073 76.3578 228.836 77.5435 228.836 78.2549 229.073 79.2034 228.362 79.9148 228.125 80.152 228.599 80.6262 228.599 81.3376 227.888 81.5748 226.939 81.3376 225.991 81.8119 224.093 82.7605 221.959 83.2347 219.825 82.9976 218.876 82.9976 218.165 83.709 218.165 84.4204 218.165 85.8432 217.691 86.7918 216.505 87.7403 215.557 88.4517 214.845 89.4003 213.897 90.3488 213.66 90.5859 213.422 90.5859 213.66 90.5859 213.422 89.4003 213.422 88.4517 213.185 87.266 212.948 86.3175 213.66 85.1318 214.608 84.4204 215.319 83.9461 216.031 83.709 216.505 83.2347 216.505 82.9976 216.505 82.9976 216.505 82.9976 215.557 81.5748 215.557 81.5748 214.134 82.5233 213.66 82.7605 213.185 83.2347 212.711 83.4719 212 84.1833 211.288 84.1833 210.577 83.709 210.102 83.4719 209.391 83.4719 208.917 83.4719 207.968 83.4719 207.02 83.4719 206.071 83.4719 205.36 83.4719 204.885 83.709 204.411 84.1833 203.463 84.8947 202.514 85.6061 201.566 86.3175 201.803 87.0289 202.277 87.266 203.226 87.0289 203.937 87.0289 204.885 87.266 205.597 87.5032 205.597 87.5032 205.834 87.5032 205.834 87.7403 206.071 88.6889 206.308 89.8745 206.308 90.8231 206.308 91.2973 206.071 92.0088 205.834 92.483 205.834 92.7202 205.597 92.9573 205.597 93.1944 205.36 92.9573 205.123 92.9573 205.123 92.7202 204.885 92.0088 204.885 91.0602 204.885 90.1117 204.648 90.3488 204.411 90.5859 204.411 90.5859 204.174 92.2459 202.988 92.9573 202.04 93.9058 201.566 94.3801 201.328 94.8544 200.854 95.0915 200.617 95.3287 200.143 95.5658 199.668 95.5658 198.72 95.3287 198.009 95.8029 197.534 96.5143 196.823 97.4629 195.874 98.1743 197.06 99.5971 197.297 100.071 196.823 101.02 196.586 101.731 196.586 101.968 195.874 101.968 195.4 101.968 195.4 101.494 195.163 101.257 195.163 100.783 195.4 99.8342 195.4 99.36 194.214 99.36 194.214 98.6486 194.214 98.1743 193.977 97.4629 193.266 97.7 192.792 97.9371 192.317 98.1743 192.08 97.7 192.08 97.4629 191.843 97.2257L191.606 97.2257C191.369 97.4629 191.132 97.7 190.894 97.9371 190.657 98.1743 190.42 98.4114 190.183 98.6486 190.657 98.8857 190.894 99.36 191.369 99.5971 191.843 99.8342 192.317 99.8342 192.792 100.071 192.554 100.546 192.08 100.783 191.843 101.257L191.606 101.494C191.843 101.968 192.08 102.68 192.317 103.154 193.266 105.288 193.029 106.474 191.369 108.134 190.894 108.608 190.42 109.083 190.183 109.557 189.472 110.742 188.286 111.217 186.863 111.454 185.44 111.691 185.44 111.691 185.677 113.114 185.677 113.588 185.44 114.062 185.203 114.537L184.729 114.537C184.492 114.062 184.492 113.825 184.492 113.351L184.492 113.351C184.492 112.877 184.492 112.402 184.492 111.691 184.018 111.928 183.543 112.165 183.306 112.64 183.069 113.114 183.069 113.825 183.306 114.3 183.78 115.011 184.255 115.722 184.729 116.434 185.677 117.857 185.44 119.279 184.018 120.228 183.543 120.465 183.306 120.939 183.069 121.414 182.832 121.888 182.595 122.362 182.358 122.836 181.409 121.176 181.409 119.279 179.749 118.331 179.512 118.805 179.512 119.279 179.275 119.517 177.852 119.991 177.615 120.228 177.141 120.465L177.141 120.465ZM149.159 94.3801C148.21 92.483 147.973 92.483 146.55 93.1944 146.313 93.4316 145.839 93.4316 145.364 93.4316 144.416 93.4316 143.704 94.3801 144.179 95.0915 144.653 95.8029 145.127 96.2772 145.601 96.7515 146.787 97.7 147.024 97.7 145.601 98.6486 145.127 99.1228 144.89 99.5971 145.364 99.8342 146.313 100.309 147.261 100.546 148.21 100.783 148.21 100.783 148.684 100.546 148.684 100.309 148.447 99.1228 148.447 97.9371 147.973 96.7515 147.736 96.2772 147.261 95.8029 146.787 95.3287 146.55 95.0915 146.313 94.6172 146.55 94.3801 146.787 94.143 147.024 93.9058 147.499 93.9058 147.973 94.143 148.447 94.143 149.159 94.3801ZM137.776 93.4316C137.539 93.6687 137.302 94.143 136.827 94.3801 136.353 94.8544 135.879 94.8544 135.405 94.3801 134.219 92.9573 134.219 92.9573 133.27 94.6172 133.27 94.8544 133.033 94.8544 133.033 95.0915 132.085 95.8029 132.322 96.7515 132.559 97.7 133.508 97.4629 134.219 97.4629 134.93 97.2257 135.879 96.7515 136.827 96.7515 137.776 97.2257 138.487 97.4629 139.436 97.7 140.147 97.4629 141.096 97.4629 141.096 96.7515 140.384 96.2772 139.673 95.8029 138.962 95.3287 138.487 94.8544 138.25 94.3801 138.013 93.9058 137.776 93.4316ZM141.333 117.619 141.333 117.619C141.807 115.959 141.333 114.537 140.147 113.351 139.673 112.877 139.436 112.402 138.962 111.691 138.25 110.505 137.776 109.083 137.302 107.897 137.065 107.66 136.827 107.66 136.353 107.423 136.353 107.66 136.353 108.134 136.353 108.371 136.827 109.794 137.065 110.98 137.539 112.402 137.776 113.114 137.776 113.825 138.013 114.3 138.725 115.248 139.436 115.959 140.147 116.908 140.622 117.145 141.096 117.382 141.333 117.619ZM140.147 78.7291C139.199 78.7291 138.25 78.9663 137.065 78.9663 137.065 79.6777 137.065 80.152 138.013 79.6777 138.25 79.6777 138.487 79.4405 138.725 79.6777 139.91 80.3891 139.91 79.6777 140.147 78.7291ZM136.353 128.528C136.116 128.291 135.642 128.053 135.642 128.053 135.405 128.291 135.167 128.765 134.93 129.002 134.93 129.239 135.167 129.476 135.405 129.713 135.642 129.239 135.879 129.002 136.353 128.528ZM162.675 76.8321C163.15 76.8321 163.624 77.0692 164.335 77.0692 164.335 76.8321 164.335 76.3578 164.098 76.1206 163.387 75.8835 162.912 76.1206 162.675 76.8321Z" fill="#FFFFFF" transform="matrix(1 0 0 1.00002 590 297.393)"/><path d="M91.2973 131.61C90.8231 131.373 90.3488 131.136 90.1117 130.899 89.6374 130.188 88.926 130.188 88.2146 130.188 87.9774 130.188 87.7403 130.188 87.5032 129.951 86.0804 129.239 84.4204 128.528 82.9976 127.816 82.9976 127.342 82.9976 126.868 82.9976 126.631 82.2862 125.682 81.5748 124.734 80.8634 123.785 80.3891 123.311 79.9148 122.836 78.9663 123.311 78.7291 123.311 78.2549 123.311 78.0177 123.074 77.7806 122.836 77.5435 122.362 77.0692 122.125 76.1206 121.888 75.6464 121.176 75.8835 120.465 75.4092 120.465 75.1721 120.228 74.6978 120.228 74.4607 120.228 73.9864 120.228 73.7493 120.228 72.8007 120.228 71.8522 120.465 71.3779 120.228 70.1922 119.279 69.9551 119.991 69.2437 120.939 69.2437 120.228 69.4808 119.754 69.4808 119.279 68.2952 119.517 67.3466 119.991 66.6352 120.939 66.1609 121.651 65.9238 122.125 64.9753 121.414 64.7381 121.176 64.0267 121.176 63.7896 121.414 62.6039 121.888 61.8925 121.651 61.6553 120.228 61.6553 119.517 61.6553 119.042 61.8925 118.331 62.1296 117.145 61.4182 116.434 59.9954 116.671 59.5211 116.671 59.284 116.671 58.5726 116.671 58.8097 115.722 59.0469 114.774 59.0469 114.062 59.0469 113.588 59.284 112.877 59.0469 112.64 58.8097 112.402 58.0983 112.402 57.624 112.402 57.1498 112.402 56.6755 112.877 56.6755 113.351 56.6755 114.537 55.4898 114.062 55.0155 114.537 54.7784 114.537 54.3041 114.3 54.067 114.062 52.8813 113.114 52.6442 111.691 52.6442 110.031 52.6442 109.32 52.6442 108.371 52.8813 107.897 53.3556 106.948 55.2527 106.237 56.4384 106.474 56.9126 106.474 57.3869 106.474 57.8612 106.237 59.0469 105.526 61.6553 106 61.8925 107.66 61.8925 108.134 62.3668 108.608 62.6039 109.083 62.841 109.32 63.0782 109.32 63.3153 109.557 63.5524 109.32 63.7896 109.083 63.7896 108.845 63.7896 108.134 63.5524 107.185 63.3153 106.711 62.841 106 63.0782 105.526 63.5524 105.051 64.501 104.103 65.4495 103.391 66.1609 102.443 66.3981 102.206 66.6352 101.968 66.3981 101.731 65.9238 100.546 66.8723 100.071 67.3466 99.36 67.5837 98.6486 68.2952 97.9371 69.4808 98.1743 69.9551 98.1743 70.4294 98.1743 70.1922 97.4629 69.9551 96.7515 69.718 96.2772 70.4294 96.0401 71.1408 95.8029 71.8522 95.0915 72.5636 96.2772 72.5636 96.5143 73.0379 96.5143 73.275 96.5143 74.2236 96.2772 75.4092 95.8029 76.3578 95.5658 76.5949 95.5658 76.8321 95.0915 76.5949 94.8544 76.5949 94.6172 76.1206 94.3801 76.1206 94.3801 75.1721 95.0915 74.6978 93.9058 73.9864 93.9058 73.7493 92.483 73.275 92.2459 72.0893 92.7202 71.6151 92.9573 71.1408 92.9573 70.6665 93.1944 70.9036 92.0088 70.9036 92.0088 72.5636 91.7716 73.275 91.5345 73.7493 91.5345 74.2236 92.2459 74.2236 92.483 75.1721 92.483 75.1721 92.483 75.8835 91.0602 77.0692 91.2973 78.2549 90.8231 77.7806 91.7716 77.5435 92.483 77.0692 93.6687 78.492 93.6687 79.6777 93.6687 81.1005 93.6687L81.3376 93.4316C80.8634 92.9573 80.6262 92.2459 80.152 92.2459 78.7291 92.0088 78.9663 91.2973 79.4405 90.3488 79.6777 90.1117 79.6777 89.8745 79.6777 89.4003 78.492 88.6889 77.3063 88.2146 76.1206 87.5032 75.8835 87.5032 75.8835 87.0289 75.6464 86.7918 75.1721 86.0804 74.6978 85.3689 74.2236 84.6575 73.7493 83.9461 73.275 83.9461 72.8007 84.6575 72.3265 85.3689 71.6151 85.6061 70.9036 85.1318 70.6665 84.8947 70.4294 84.1833 70.4294 83.9461L70.6665 83.709C69.2437 83.4719 67.8209 82.9976 66.3981 82.7605 66.1609 82.7605 65.4495 82.9976 65.4495 83.2347 65.2124 84.1833 64.501 85.1318 65.6867 86.0804 65.9238 86.3175 65.9238 86.7918 65.9238 87.0289 65.6867 87.266 65.2124 87.266 64.9753 87.5032 64.7381 87.5032 64.7381 87.5032 64.2638 87.5032 64.501 88.2146 64.7381 88.926 64.7381 89.6374 64.7381 89.8745 64.501 90.1117 64.2638 90.3488 64.0267 90.1117 63.7896 89.8745 63.7896 89.6374 63.5524 89.4003 63.7896 88.926 63.5524 88.926 62.6039 87.9774 61.8925 86.7918 60.2325 87.266 59.7583 87.5032 59.0469 87.0289 58.3354 86.7918 57.8612 85.6061 57.3869 85.3689 56.9126 85.3689 55.9641 85.3689 55.727 84.8947 55.4898 84.1833 55.0155 82.9976 56.6755 80.8634 58.0983 80.6262 58.5726 80.6262 59.284 80.3891 59.9954 80.3891 59.9954 80.6262 60.2325 80.8634 60.2325 80.8634 61.1811 80.8634 61.8925 80.8634 62.6039 81.1005 62.841 81.1005 63.3153 81.1005 63.5524 81.1005 63.3153 80.8634 63.3153 80.3891 63.0782 80.152 62.6039 79.6777 62.1296 79.4405 61.6553 79.2034 63.5524 78.2549 63.5524 78.2549 62.841 76.8321 63.5524 76.8321 64.2638 76.5949 64.9753 76.5949 66.3981 76.5949 66.3981 77.0692 65.9238 78.492 66.6352 78.2549 67.3466 78.0177 68.058 77.7806 67.3466 78.492 66.8723 79.6777 65.6867 79.4405 65.4495 79.4405 65.2124 79.9148 64.9753 80.3891 65.2124 80.6262 65.6867 80.8634 65.9238 80.8634 66.8723 81.1005 67.8209 80.8634 68.7694 81.3376 70.4294 82.049 72.0893 82.7605 74.2236 81.8119 73.7493 81.1005 73.0379 80.3891 72.5636 79.6777 73.0379 79.6777 73.5121 80.152 73.9864 80.152 74.4607 80.152 75.4092 79.9148 75.6464 79.4405 76.1206 78.7291 75.4092 78.7291 74.935 78.492 74.2236 78.2549 73.275 77.7806 72.5636 77.5435 72.3265 77.5435 72.0893 77.0692 72.0893 77.0692 71.8522 76.1206 71.1408 75.8835 70.4294 75.6464 69.2437 75.4092 68.2952 75.1721 67.3466 74.4607 66.1609 73.7493 64.9753 73.275 63.7896 73.5121 62.6039 73.7493 61.1811 73.275 60.4697 74.935 60.2325 74.4607 60.4697 74.2236 60.2325 73.9864 60.2325 73.7493 59.9954 73.5121 59.7583 73.275 59.0469 73.0379 57.624 73.9864 57.624 74.6978 57.624 75.6464 58.3354 76.3578 59.284 76.3578 59.7583 76.3578 60.2325 76.3578 60.7068 76.5949 60.7068 76.8321 60.7068 76.8321 60.7068 77.0692 60.2325 77.3063 59.7583 77.7806 59.5211 78.0177L59.5211 77.7806C59.0469 77.5435 58.5726 77.5435 58.0983 77.3063 57.8612 77.3063 57.624 77.0692 57.3869 76.8321 56.9126 76.5949 56.6755 76.1206 56.2012 75.6464 55.9641 75.4092 55.4898 75.4092 55.0155 75.1721 55.0155 75.6464 55.0155 76.1206 55.0155 76.3578 55.2527 77.3063 55.2527 77.7806 54.3041 78.2549 52.8813 76.5949 52.8813 76.5949 52.407 76.8321 52.407 77.3063 52.1699 78.2549 52.1699 78.2549 50.7471 78.2549 49.5614 78.2549 48.1386 78.2549 48.1386 78.0177 48.1386 78.0177 48.1386 77.7806 48.6129 77.5435 49.0871 77.5435 49.5614 77.3063 50.0357 77.0692 50.2728 76.8321 50.7471 76.5949 50.51 76.3578 50.0357 76.1206 49.7985 75.8835 48.3757 75.4092 48.3757 75.1721 48.85 73.7493 48.3757 73.7493 48.1386 73.7493 47.6643 73.5121 47.9015 72.8007 47.9015 72.3265 48.1386 71.6151 46.9529 71.8522 45.7672 70.9036 44.8187 71.8522L44.5816 71.8522C43.633 71.3779 42.4473 71.1408 41.4988 70.6665 40.3131 69.9551 38.1789 70.6665 37.7046 72.3265 38.6532 72.0893 39.3646 72.0893 40.076 72.0893 40.3131 72.0893 40.5503 72.3265 40.7874 72.3265 40.5503 72.5636 40.5503 72.8007 40.3131 73.0379 39.8388 73.275 39.1274 73.275 38.6532 73.275 37.2303 73.0379 36.2818 73.5121 35.8075 75.1721 36.2818 75.4092 36.5189 75.6464 37.2303 76.1206 35.5704 75.6464 34.859 75.8835 34.3847 75.8835 33.199 75.6464 32.2505 75.6464 31.0648 75.8835 30.1163 76.1206 28.6935 75.6464 27.7449 76.5949L27.5078 76.5949C26.5592 76.3578 25.6107 75.8835 24.6621 75.6464 23.9507 75.4092 23.4765 75.4092 22.7651 75.4092 22.0536 75.4092 21.5794 75.6464 20.868 75.4092 20.1566 75.4092 19.208 75.1721 18.4966 74.935 17.3109 74.6978 16.3624 74.6978 15.1767 74.6978 14.9396 74.6978 14.7024 74.6978 14.4653 74.6978 13.0425 75.1721 11.6197 75.6464 10.1968 76.1206 9.72257 76.3578 9.48544 76.5949 9.2483 76.8321 9.48544 77.0692 9.72257 77.3063 10.1968 77.5435 10.9083 78.0177 11.6197 78.2549 12.0939 78.492 12.0939 78.7291 12.0939 78.7291 11.8568 78.9663 11.6197 78.9663 11.1454 78.7291 10.9083 78.7291 10.1968 78.7291 9.48544 78.492 9.01117 78.492 8.77403 78.492 8.29976 78.9663 8.06262 79.2034 8.29976 79.4405 8.53689 79.9148 8.77403 79.9148 9.48544 80.3891 9.95971 80.6262 10.6711 80.8634 9.95971 81.3376 8.77403 81.8119 9.48544 82.9976 9.95971 83.9461 10.6711 84.1833 11.6197 83.4719 11.8568 83.9461 11.8568 84.1833 11.8568 84.1833 12.8053 84.4204 13.5167 84.6575 14.4653 84.6575 13.0425 85.8432 11.3825 86.0804 10.434 87.5032 10.9083 87.5032 11.1454 87.5032 11.6197 87.5032 12.0939 87.5032 12.8053 87.266 13.2796 87.0289 13.991 86.7918 14.4653 86.7918 14.9396 86.3175 15.4138 86.0804 15.651 85.6061 16.3624 86.0804 17.0738 86.3175 18.0223 85.6061 17.7852 84.8947 17.7852 84.4204 17.7852 83.709 17.7852 83.2347 18.9709 84.4204 20.3937 84.1833 21.3422 82.7605 22.7651 82.9976 24.1879 83.4719 25.6107 83.9461 26.7964 84.1833 27.982 84.4204 28.2192 85.8432L28.4563 86.0804C29.642 86.3175 29.8791 87.0289 29.8791 87.9774 29.8791 88.4517 30.5905 88.926 30.8277 89.1631 31.0648 89.1631 31.5391 88.926 32.0134 88.6889 32.2505 89.1631 32.4876 89.8745 32.7248 90.3488 32.9619 90.8231 33.199 91.2973 33.4362 91.5345 34.859 92.0088 35.0961 93.1944 35.3333 94.3801 35.3333 94.8544 35.3333 95.5658 35.3333 96.0401 34.859 98.4114 36.5189 100.071 36.9932 102.206 36.9932 102.443 37.4675 102.68 37.7046 102.68 39.3646 102.917 40.076 104.34 40.3131 105.763 40.5503 106.711 41.7359 107.185 41.2617 108.371L41.4988 108.608C41.9731 109.083 42.4473 109.557 42.9216 109.794 43.3959 110.268 43.633 110.742 44.1073 110.98 44.3444 111.217 44.5816 111.217 44.8187 111.217 44.8187 110.98 44.8187 110.742 44.5816 110.268 44.1073 109.32 43.3959 108.371 42.9216 107.423L43.1587 107.185C44.5816 108.608 46.0044 110.268 46.9529 112.165 47.4272 113.114 47.4272 114.3 48.85 114.3 49.0871 114.3 49.3243 114.537 49.3243 114.537 49.7985 116.197 50.9842 116.671 52.407 116.671L52.407 116.671C52.6442 116.671 53.1185 116.671 53.3556 116.671 54.067 116.197 54.5413 116.434 54.7784 116.908 55.4898 117.857 56.4384 118.331 57.624 118.568 58.0983 118.568 58.5726 119.042 58.5726 119.279 58.5726 120.702 59.7583 120.939 60.4697 121.651 61.8925 122.836 61.8925 122.836 63.5524 122.125 64.9753 123.785 65.2124 125.682 63.7896 126.868 61.6553 128.291 62.841 130.662 62.3668 132.322 62.3668 132.322 62.3668 132.559 62.6039 132.796 63.7896 133.745 64.0267 135.167 64.501 136.353 65.2124 138.013 65.4495 139.91 67.5837 140.622 69.2437 141.096 69.718 142.519 69.4808 144.416 69.2437 145.839 69.2437 147.499 69.2437 148.921 69.2437 149.159 69.0066 149.396 69.0066 149.633 68.7694 150.344 68.5323 150.818 68.2952 151.53 68.7694 152.241 68.7694 153.19 68.5323 154.138 68.5323 154.613 68.058 155.087 68.058 155.561 68.058 156.273 68.058 157.221 67.8209 157.933 67.5837 159.355 68.058 161.252 66.6352 162.438L66.6352 162.675C66.6352 163.624 66.6352 164.809 66.8723 165.758 66.8723 166.232 67.3466 166.707 67.3466 167.181 67.8209 169.315 71.1408 170.738 73.0379 168.841 72.8007 168.841 72.8007 168.841 72.5636 168.604 71.3779 168.367 70.9036 167.655 70.6665 166.707 70.6665 166.232 71.1408 165.521 71.6151 165.047 72.0893 164.335 72.5636 163.861 73.0379 163.387 72.5636 163.15 72.0893 162.912 71.8522 162.675 72.0893 162.201 72.3265 161.964 72.5636 161.727 73.0379 160.778 74.6978 160.304 73.275 158.881 73.9864 158.881 74.2236 158.881 74.6978 158.881 74.4607 157.695 74.935 157.458 75.8835 157.458 76.8321 157.458 77.5435 157.221 78.0177 156.273 78.2549 155.798 78.492 155.324 78.492 154.613 79.9148 154.613 80.8634 153.664 81.1005 152.716 81.5748 151.293 82.5233 150.581 83.2347 149.396 83.4719 149.159 83.709 148.684 83.4719 148.447 82.9976 147.499 83.4719 147.024 84.1833 146.55 85.1318 146.076 86.0804 145.839 87.0289 145.364 87.266 145.127 87.7403 145.127 87.9774 144.89 88.926 143.23 89.6374 141.57 89.6374 139.673 89.6374 138.962 89.8745 138.25 90.3488 137.776 90.8231 136.59 91.7716 135.642 92.2459 134.693 93.1944 133.27 92.483 132.085 91.2973 131.61ZM66.6352 94.8544C65.6867 95.3287 64.9753 95.8029 64.0267 96.2772 64.501 95.0915 64.9753 94.6172 66.6352 94.8544ZM63.7896 93.4316 63.5524 93.6687C63.3153 94.3801 63.0782 94.8544 62.841 95.8029 62.6039 95.3287 62.3668 95.0915 62.3668 94.8544 62.3668 94.143 62.3668 93.4316 61.4182 93.6687 60.4697 93.6687 60.2325 94.3801 59.9954 95.0915 59.9954 95.5658 59.9954 96.0401 59.7583 96.7515 59.284 96.0401 59.0469 94.143 59.5211 93.4316 59.9954 92.7202 60.7068 92.9573 61.4182 92.9573 62.3668 93.4316 63.0782 93.4316 63.7896 93.4316ZM61.1811 92.2459C59.9954 92.2459 58.8097 92.2459 57.3869 92.2459 59.284 90.3488 59.7583 90.3488 61.1811 92.2459ZM40.3131 76.5949C39.3646 76.1206 38.6532 75.8835 37.4675 75.4092 38.1789 74.935 38.6532 74.6978 39.1274 74.4607 39.6017 74.935 40.076 75.6464 40.5503 76.1206 40.3131 76.3578 40.3131 76.5949 40.3131 76.5949ZM41.2617 72.8007 41.2617 72.5636C41.4988 72.5636 42.2102 72.3265 42.2102 72.5636 42.6845 73.275 43.3959 73.0379 44.1073 73.0379 44.8187 73.0379 45.293 73.0379 46.0044 73.0379 44.8187 73.7493 42.9216 73.7493 41.2617 72.8007Z" fill="#FFFFFF" transform="matrix(1 0 0 1.00002 590 297.393)"/><path d="M68.5323 69.9551C69.0066 69.9551 69.2437 69.718 69.718 69.718 70.1922 69.4808 70.6665 69.0066 71.1408 68.7694 71.3779 68.5323 71.6151 68.5323 71.8522 68.2952 72.0893 68.058 72.3265 67.8209 72.5636 67.5837 72.8007 67.3466 72.8007 66.8723 73.0379 66.8723 75.1721 65.9238 76.8321 63.7896 79.6777 65.2124 80.3891 65.6867 81.1005 65.2124 81.3376 64.2638 81.5748 63.0782 81.5748 63.0782 82.5233 63.5524 83.4719 63.0782 84.1833 62.1296 85.1318 61.8925 87.9774 60.9439 90.8231 60.4697 93.6687 61.8925 94.3801 62.1296 95.3287 62.1296 96.0401 61.8925 96.9886 61.8925 97.2257 62.1296 97.4629 62.841 97.7 63.7896 98.1743 64.7381 98.6486 65.4495 99.36 66.3981 100.071 65.6867 100.546 65.2124 101.02 64.7381 101.731 64.2638 102.443 64.501 102.68 64.501 103.154 64.7381 103.391 64.9753 103.154 65.2124 103.154 65.6867 102.917 65.9238 101.968 66.6352 101.02 67.5837 100.309 68.2952 99.8342 68.7694 99.5971 69.4808 100.309 69.9551 100.309 69.9551 100.546 70.4294 100.309 70.4294 100.071 71.1408 99.8342 71.8522 99.5971 72.5636 99.36 72.5636 99.1228 72.5636 98.8857 72.5636 97.7 72.3265 97.4629 72.5636 97.7 73.5121 98.1743 75.1721 98.1743 75.4092 96.2772 76.1206 95.0915 76.5949 93.9058 76.5949 92.483 77.0692 92.0088 77.3063 91.5345 77.5435 91.2973 77.7806 90.8231 78.492 90.3488 78.492 89.6374 78.492 88.4517 78.492 87.5032 78.7291 87.266 80.152 87.0289 81.1005 86.3175 81.8119 85.8432 82.5233 85.6061 82.9976 85.1318 82.9976 84.6575 82.7605 83.9461 82.2862 82.7605 82.049 82.2862 81.3376 81.3376 80.3891 80.152 79.2034 80.152 78.0177 79.9148 76.1206 78.492 74.6978 78.7291 72.8007 78.7291 72.5636 78.2549 72.0893 77.7806 71.8522 75.8835 70.9036 73.9864 70.6665 71.8522 71.1408 71.6151 71.1408 71.3779 71.1408 71.1408 70.9036 69.9551 71.1408 69.4808 70.6665 68.5323 69.9551Z" fill="#FFFFFF" transform="matrix(1 0 0 1.00002 590 297.393)"/><path d="M201.803 153.19C201.328 153.664 200.854 154.138 200.38 154.613 200.143 154.376 200.143 154.138 200.143 153.901 200.143 153.19 199.668 152.953 199.194 152.478 197.534 151.056 196.111 152.716 194.451 152.478 194.214 152.478 193.977 153.19 193.74 153.427 193.266 154.138 193.029 154.613 192.08 154.138 191.606 153.901 191.132 154.138 190.42 154.376 189.709 154.613 189.234 154.85 188.76 154.85 188.286 154.85 187.812 154.376 187.575 154.138 187.337 153.901 187.575 153.19 187.812 153.19 188.286 152.478 188.286 152.004 187.812 151.53 187.337 150.344 187.1 149.159 186.626 147.973 186.626 147.736 186.389 147.499 186.389 147.261 185.677 146.55 185.915 145.839 186.389 145.364 187.337 144.416 188.049 143.467 189.472 143.467 189.946 143.467 190.657 143.23 191.132 142.756 191.369 142.519 191.606 142.044 191.369 141.57 191.369 140.147 191.369 140.147 192.792 140.147 193.029 140.147 193.503 139.91 193.74 139.436 194.214 138.725 194.689 137.776 195.637 138.962 195.637 138.962 196.349 138.962 196.586 138.725 196.823 138.25 197.06 137.776 197.297 137.302 197.771 137.302 198.009 137.065 198.483 137.065 199.431 137.065 200.143 137.302 201.091 137.539 201.328 137.539 201.328 138.25 201.091 138.487 200.854 139.199 201.091 139.673 201.803 139.91 202.514 140.147 202.988 140.622 203.7 141.096 204.411 140.384 204.648 139.436 204.411 138.487 204.174 137.776 204.174 136.827 204.885 136.116 205.597 137.302 206.308 138.487 207.02 139.673 207.02 139.91 207.257 140.147 207.257 140.384 207.257 141.807 207.968 142.756 209.391 142.993 210.102 143.23 210.34 143.704 210.34 144.416 210.577 145.601 211.051 146.55 211.525 147.499 211.762 148.447 212.474 149.159 212.474 150.107 212.474 150.818 212.237 151.53 212 152.004 211.051 153.19 210.102 154.138 209.628 155.561 209.391 156.273 207.257 157.221 206.545 156.984 206.308 156.984 206.308 156.747 206.071 156.984 205.123 157.695 204.411 156.747 203.7 156.51 203.463 156.51 203.463 156.273 203.226 156.273 202.988 155.324 202.277 154.376 201.803 153.19Z" fill="#FFFFFF" transform="matrix(1 0 0 1.00002 590 297.393)"/><path d="M202.514 133.982C202.751 133.033 202.277 132.322 201.091 131.848 200.38 131.61 199.431 131.373 198.483 131.136 198.957 130.188 198.72 129.476 197.771 129.239 198.246 128.291 198.246 128.291 198.957 128.765 199.668 129.002 200.38 129.476 201.328 129.476 204.411 129.476 206.545 130.899 208.205 133.508 208.68 134.219 209.391 134.93 209.865 135.642 210.102 135.879 209.865 136.116 209.865 136.353 209.628 136.353 209.154 136.353 209.154 136.353 208.68 135.879 207.968 135.405 207.731 134.93 207.257 134.219 206.545 133.982 206.071 134.693 205.834 134.93 205.834 135.167 205.597 135.405 205.123 136.116 204.885 136.116 204.411 135.405 203.463 134.693 202.988 134.456 202.514 133.982Z" fill="#FFFFFF" transform="matrix(1 0 0 1.00002 590 297.393)"/><path d="M189.709 124.259C189.709 125.208 189.709 125.919 189.709 126.631 189.709 127.342 189.472 127.816 189.234 128.528 188.997 129.002 188.997 129.713 188.76 130.188 188.523 130.425 188.523 130.899 188.286 131.136 186.389 131.848 183.543 129.476 184.018 127.342 184.018 127.105 184.255 126.868 184.255 126.868 185.44 126.868 186.152 125.919 186.863 125.208 187.337 124.734 188.523 124.496 188.523 123.548 188.76 123.548 189.234 123.548 189.234 123.548 189.472 123.785 189.472 124.022 189.709 124.259Z" fill="#FFFFFF" transform="matrix(1 0 0 1.00002 590 297.393)"/><path d="M146.787 139.436C146.313 141.096 145.839 142.993 145.364 144.653 145.127 145.364 144.89 145.839 144.653 146.55 144.416 147.261 143.704 147.499 143.23 147.261 142.993 147.024 142.756 146.55 142.519 146.076 142.282 144.89 142.519 143.704 142.519 142.756 142.282 141.096 142.756 140.147 144.179 139.436 144.653 139.199 144.89 138.725 145.127 138.25 145.364 138.013 145.839 137.776 146.076 137.302 146.313 137.776 146.55 138.013 146.787 138.487 146.787 138.962 146.55 139.199 146.787 139.436L146.787 139.436Z" fill="#FFFFFF" transform="matrix(1 0 0 1.00002 590 297.393)"/><path d="M175.243 124.259C175.481 124.259 175.955 124.259 176.192 124.496 176.666 124.971 177.378 125.208 177.852 125.682 179.275 126.868 180.698 128.291 181.883 129.713 182.12 129.951 182.12 130.425 181.883 130.899 181.409 132.322 182.12 133.27 183.543 133.508 184.255 133.508 185.203 133.508 185.915 133.745 186.389 133.745 186.863 134.219 187.1 134.456 187.1 134.693 187.1 134.693 186.863 134.93 186.152 134.93 185.203 134.693 184.492 134.693 184.255 134.693 184.018 134.456 183.78 134.456 182.358 134.693 181.409 133.982 180.46 132.796 180.223 132.559 179.749 132.085 179.275 132.085 178.089 131.848 177.615 130.899 177.615 129.951 177.615 128.291 176.666 127.105 175.481 125.919 175.006 125.682 174.769 125.208 174.532 124.734 175.006 124.259 175.006 124.259 175.243 124.259Z" fill="#FFFFFF" transform="matrix(1 0 0 1.00002 590 297.393)"/><path d="M203.226 96.9886C202.988 95.8029 203.937 95.0915 204.648 94.8544 205.36 94.6172 206.308 95.3287 207.257 95.8029 207.02 96.0401 207.02 96.2772 206.783 96.5143 206.308 96.7515 205.597 96.7515 205.123 96.9886 204.174 96.9886 204.174 97.4629 204.411 98.1743 204.885 99.36 204.174 101.494 202.988 102.206 201.566 102.917 200.38 103.866 198.72 104.103 198.483 104.103 198.483 104.34 198.246 104.34 198.009 104.814 197.534 105.288 197.06 104.577 196.586 104.103 196.349 103.391 197.06 102.917 198.009 102.206 198.483 101.494 199.906 101.731 201.328 101.968 202.988 100.071 203.226 98.4114 203.226 97.7 203.226 97.2257 203.226 96.9886Z" fill="#FFFFFF" transform="matrix(1 0 0 1.00002 590 297.393)"/><path d="M156.51 72.3265C154.613 72.0893 152.953 72.0893 151.293 73.0379 150.581 73.5121 150.107 73.7493 150.581 74.6978 151.056 75.4092 150.344 75.6464 149.87 75.6464 148.921 75.4092 148.21 75.1721 147.261 74.6978 147.261 74.6978 147.261 73.7493 147.499 73.7493 149.87 72.3265 152.004 70.4294 155.087 70.9036 155.561 70.9036 156.273 70.6665 156.984 70.6665 157.221 70.6665 157.695 70.6665 157.933 70.6665 157.695 70.9036 157.695 71.3779 157.458 71.6151 157.221 72.0893 156.747 72.0893 156.51 72.3265Z" fill="#FFFFFF" transform="matrix(1 0 0 1.00002 590 297.393)"/><path d="M105.051 78.9663C104.34 80.6262 101.968 81.3376 100.783 80.8634 100.546 80.6262 100.071 80.6262 99.8342 80.6262 99.1228 80.3891 98.6486 79.9148 98.8857 79.2034 99.1228 78.492 99.8342 78.7291 100.309 78.9663 101.02 78.9663 101.731 79.2034 102.443 79.2034 103.391 78.9663 104.103 78.9663 105.051 78.9663Z" fill="#FFFFFF" transform="matrix(1 0 0 1.00002 590 297.393)"/><path d="M221.485 163.15C221.011 162.912 220.536 162.675 220.536 162.438 220.536 162.201 220.536 161.49 220.774 161.252 221.722 160.304 222.671 159.355 223.856 158.644 224.093 158.407 224.568 158.407 224.805 158.407 225.042 158.407 225.279 158.881 225.042 159.118 224.805 159.593 224.568 160.067 224.331 160.541 223.856 161.252 223.145 161.727 222.434 162.438 222.434 162.912 221.959 163.15 221.485 163.15Z" fill="#FFFFFF" transform="matrix(1 0 0 1.00002 590 297.393)"/><path d="M177.141 120.465C177.852 121.414 178.563 122.362 179.275 123.311 180.223 124.496 180.46 126.156 180.935 127.579 179.749 127.342 179.038 126.631 178.801 125.682 178.326 124.496 177.615 123.311 177.141 121.888 176.903 121.414 177.141 120.939 177.141 120.465L177.141 120.465Z" fill="#FFFFFF" transform="matrix(1 0 0 1.00002 590 297.393)"/><path d="M191.843 114.3C192.554 114.774 192.554 114.774 191.843 116.908 192.317 117.145 193.029 117.382 193.503 117.619 192.554 118.331 191.606 119.042 190.894 119.754 190.894 119.754 190.657 119.517 190.894 119.517 191.606 118.805 191.606 117.857 190.894 117.145 190.657 116.908 190.657 116.197 190.894 115.959 190.894 115.248 191.369 114.774 191.843 114.3Z" fill="#FFFFFF" transform="matrix(1 0 0 1.00002 590 297.393)"/><path d="M225.991 158.881C225.516 158.407 225.279 157.933 225.042 157.458 225.042 156.51 225.042 155.561 225.042 154.376 225.279 154.613 225.516 154.613 225.753 155.087 225.991 155.798 226.465 156.51 227.413 156.51 227.413 156.51 227.651 156.747 227.651 156.984 227.651 157.221 226.228 158.881 225.991 158.881Z" fill="#FFFFFF" transform="matrix(1 0 0 1.00002 590 297.393)"/><path d="M190.183 131.136C189.709 129.239 190.183 128.765 191.843 128.765 192.08 128.765 192.554 129.002 192.792 129.002 192.554 129.239 192.554 129.476 192.317 129.951 192.554 130.188 192.792 130.662 192.792 131.136 192.792 131.373 192.792 131.61 192.792 132.085 192.554 132.085 192.08 131.848 191.843 131.61 191.606 131.373 191.606 131.136 191.369 130.662 191.132 130.899 190.657 130.899 190.183 131.136Z" fill="#FFFFFF" transform="matrix(1 0 0 1.00002 590 297.393)"/><path d="M61.4182 111.691C61.8925 110.742 63.5524 110.742 64.2638 111.217 64.9753 111.691 65.6867 112.165 66.3981 112.402 66.6352 112.402 66.6352 112.877 66.8723 112.877 66.6352 112.877 66.3981 113.114 66.1609 113.114L66.1609 113.114C64.7381 112.165 63.3153 111.454 61.4182 111.691Z" fill="#FFFFFF" transform="matrix(1 0 0 1.00002 590 297.393)"/><path d="M67.8209 114.537C68.5323 113.588 69.2437 113.114 70.1922 113.351 70.9036 113.588 71.3779 114.062 71.1408 115.248 69.9551 114.774 69.0066 114.774 67.8209 114.537Z" fill="#FFFFFF" transform="matrix(1 0 0 1.00002 590 297.393)"/><path d="M165.758 121.176C165.995 121.414 166.232 121.888 166.232 122.125 166.232 123.074 166.707 124.022 165.521 124.734 164.809 123.548 165.284 122.362 165.521 121.414 165.521 121.176 165.521 121.176 165.758 121.176Z" fill="#FFFFFF" transform="matrix(1 0 0 1.00002 590 297.393)"/><path d="M208.68 158.644C208.917 159.593 208.443 160.541 207.731 160.541 206.783 160.541 206.783 159.593 206.545 159.118 207.257 159.118 207.968 158.881 208.68 158.644Z" fill="#FFFFFF" transform="matrix(1 0 0 1.00002 590 297.393)"/><path d="M122.836 99.36C123.311 99.5971 123.785 99.5971 124.022 99.8342 124.259 100.071 124.259 100.309 124.259 100.546 124.022 100.546 123.548 100.783 123.548 100.783 123.074 100.546 122.836 100.071 122.599 99.8342 122.836 99.5971 122.836 99.5971 122.836 99.36Z" fill="#FFFFFF" transform="matrix(1 0 0 1.00002 590 297.393)"/><path d="M191.843 109.32C191.843 109.794 191.843 110.268 191.843 110.505 191.606 110.742 191.369 111.217 191.132 111.454 191.132 111.454 190.657 111.454 190.657 111.217 190.657 110.742 190.657 110.268 190.894 110.031 191.132 109.794 191.369 109.794 191.843 109.32Z" fill="#FFFFFF" transform="matrix(1 0 0 1.00002 590 297.393)"/><path d="M193.266 121.176C192.792 120.939 192.317 120.702 191.843 120.465 192.08 120.228 192.317 119.991 192.554 119.754 192.792 119.991 193.266 120.465 193.503 120.702 193.503 120.939 193.266 120.939 193.266 121.176Z" fill="#FFFFFF" transform="matrix(1 0 0 1.00002 590 297.393)"/><path d="M120.939 98.1743C120.702 98.4114 120.465 98.6486 120.228 98.6486 119.991 98.6486 119.754 98.4114 119.754 98.1743 119.754 97.9371 119.991 97.7 120.228 97.4629 120.465 97.7 120.702 97.9371 120.939 98.1743Z" fill="#FFFFFF" transform="matrix(1 0 0 1.00002 590 297.393)"/><path d="M12.8053 85.3689C12.8053 86.7918 12.3311 87.0289 11.1454 86.7918 11.8568 86.3175 12.3311 86.0804 12.8053 85.3689Z" fill="#FFFFFF" transform="matrix(1 0 0 1.00002 590 297.393)"/><text fill="#FFFFFF" font-family="Arial,Arial_MSFontService,sans-serif" font-weight="700" font-size="5" transform="matrix(2.37136 0 0 2.37141 590 570)">Created by Marc Torrada</text><text fill="#FFFFFF" font-family="Arial,Arial_MSFontService,sans-serif" font-weight="700" font-size="5" transform="matrix(2.37136 0 0 2.37141 590 582)">from the Noun Project</text></g></svg>